<svg width="50" height="50" viewBox="0 0 50 50" fill="none" xmlns="http://www.w3.org/2000/svg">
<path d="M24.6337 11.6165L13.3837 0.366501C13.2677 0.250319 13.13 0.158147 12.9783 0.0952585C12.8267 0.0323701 12.6641 0 12.5 0C12.3358 0 12.1733 0.0323701 12.0216 0.0952585C11.87 0.158147 11.7322 0.250319 11.6162 0.366501L0.366228 11.6165C0.191466 11.7913 0.0724579 12.014 0.0242485 12.2565C-0.023961 12.4989 0.000792829 12.7502 0.0953804 12.9786C0.189968 13.2069 0.350142 13.4021 0.555655 13.5395C0.761167 13.6769 1.00279 13.7502 1.24998 13.7503H2.49998V22.5002C2.49998 23.879 3.62123 25.0002 4.99998 25.0002H20C21.3787 25.0002 22.5 23.879 22.5 22.5002V13.7503H23.75C23.9972 13.7502 24.2388 13.6769 24.4443 13.5395C24.6498 13.4021 24.81 13.2069 24.9046 12.9786C24.9992 12.7502 25.0239 12.4989 24.9757 12.2565C24.9275 12.014 24.8085 11.7913 24.6337 11.6165ZM20.0012 22.5002H4.99998V10.519L12.5 3.019L20 10.519V16.2503L20.0012 22.5002Z" fill="white"/>
<path d="M13.0692 11.8018L12.7905 12.0768L12.5105 11.8018C11.9902 11.2881 11.2885 11.0001 10.5573 11.0001C9.8262 11.0001 9.1245 11.2881 8.60421 11.8018C8.34599 12.0502 8.14056 12.3482 8.00024 12.6779C7.85992 13.0076 7.7876 13.3622 7.7876 13.7206C7.7876 14.0789 7.85992 14.4335 8.00024 14.7632C8.14056 15.0929 8.34599 15.3909 8.60421 15.6393L12.7905 19.7506L16.9767 15.6393C17.2349 15.3909 17.4404 15.0929 17.5807 14.7632C17.721 14.4335 17.7933 14.0789 17.7933 13.7206C17.7933 13.3622 17.721 13.0076 17.5807 12.6779C17.4404 12.3482 17.2349 12.0502 16.9767 11.8018C16.4562 11.2881 15.7543 11 15.023 11C14.2916 11 13.5897 11.2881 13.0692 11.8018Z" fill="white"/>
</svg>
