<svg width="15" height="15" viewBox="0 0 15 15" fill="none" xmlns="http://www.w3.org/2000/svg">
<path fill-rule="evenodd" clip-rule="evenodd" d="M13.4785 0.855457L0.949589 7.76196C0.433524 8.04391 0.454008 8.46198 0.996504 8.68699L2.59426 9.3516C3.13345 9.57383 3.95149 9.4523 4.41139 9.0752L11.3594 3.31874C11.816 2.93887 11.8656 2.99581 11.4678 3.44305L5.97544 9.62314C5.57699 10.0676 5.69659 10.6128 6.23777 10.8357L6.42477 10.9107C6.9666 11.1315 7.85138 11.5003 8.38859 11.7336L10.1641 12.4906C10.7039 12.7212 11.1427 12.9135 11.1453 12.9163C11.1453 12.9191 11.148 12.9295 11.1506 12.9295C11.1526 12.9323 11.2795 12.4496 11.4315 11.8607L14.1367 1.41103C14.2893 0.822817 13.992 0.572808 13.4785 0.855457Z" fill="white"/>
<path fill-rule="evenodd" clip-rule="evenodd" d="M6.37364 11.5728L5.32171 10.9886C4.85923 10.734 4.63762 11.033 4.83032 11.6563C4.83032 11.6563 5.80687 14.8426 5.78023 14.9569C5.75133 15.0673 6.71881 13.0639 6.71881 13.0639C6.99142 12.5012 6.83613 11.8273 6.37364 11.5728Z" fill="white"/>
</svg>
