<svg width="25" height="25" viewBox="0 0 25 25" fill="none" xmlns="http://www.w3.org/2000/svg">
<path d="M24.634 11.6165L13.384 0.366501C13.268 0.250319 13.1302 0.158147 12.9786 0.0952585C12.8269 0.0323701 12.6644 0 12.5002 0C12.3361 0 12.1735 0.0323701 12.0219 0.0952585C11.8702 0.158147 11.7325 0.250319 11.6165 0.366501L0.366472 11.6165C0.19171 11.7913 0.0727021 12.014 0.0244926 12.2565C-0.0237168 12.4989 0.00103697 12.7502 0.0956245 12.9786C0.190212 13.2069 0.350386 13.4021 0.555899 13.5395C0.761411 13.6769 1.00303 13.7502 1.25022 13.7503H2.50022V22.5002C2.50022 23.879 3.62147 25.0002 5.00022 25.0002H20.0002C21.379 25.0002 22.5002 23.879 22.5002 22.5002V13.7503H23.7502C23.9974 13.7502 24.239 13.6769 24.4445 13.5395C24.6501 13.4021 24.8102 13.2069 24.9048 12.9786C24.9994 12.7502 25.0242 12.4989 24.976 12.2565C24.9277 12.014 24.8087 11.7913 24.634 11.6165ZM20.0015 22.5002H5.00022V10.519L12.5002 3.019L20.0002 10.519V16.2503L20.0015 22.5002Z" fill="white"/>
<path d="M13.0697 11.8018L12.7909 12.0768L12.5109 11.8018C11.9907 11.2881 11.289 11.0001 10.5578 11.0001C9.82669 11.0001 9.12499 11.2881 8.6047 11.8018C8.34647 12.0502 8.14105 12.3482 8.00073 12.6779C7.86041 13.0076 7.78809 13.3622 7.78809 13.7206C7.78809 14.0789 7.86041 14.4335 8.00073 14.7632C8.14105 15.0929 8.34647 15.3909 8.6047 15.6393L12.7909 19.7506L16.9772 15.6393C17.2354 15.3909 17.4408 15.0929 17.5812 14.7632C17.7215 14.4335 17.7938 14.0789 17.7938 13.7206C17.7938 13.3622 17.7215 13.0076 17.5812 12.6779C17.4408 12.3482 17.2354 12.0502 16.9772 11.8018C16.4567 11.2881 15.7548 11 15.0234 11C14.2921 11 13.5902 11.2881 13.0697 11.8018Z" fill="white"/>
</svg>
