<svg width="50" height="50" viewBox="0 0 50 50" fill="none" xmlns="http://www.w3.org/2000/svg">
<path d="M25 50C26.6576 50 28.2473 49.3415 29.4194 48.1694C30.5915 46.9973 31.25 45.4076 31.25 43.75H18.75C18.75 45.4076 19.4085 46.9973 20.5806 48.1694C21.7527 49.3415 23.3424 50 25 50ZM25 5.99374L22.5094 6.49686C19.6843 7.07249 17.1448 8.60656 15.3208 10.8394C13.4968 13.0723 12.5003 15.8668 12.5 18.75C12.5 20.7125 12.0812 25.6156 11.0656 30.4437C10.5656 32.8406 9.89063 35.3375 8.99375 37.5H41.0062C40.1094 35.3375 39.4375 32.8437 38.9344 30.4437C37.9187 25.6156 37.5 20.7125 37.5 18.75C37.499 15.8674 36.5022 13.0736 34.6782 10.8413C32.8543 8.60912 30.3152 7.07551 27.4906 6.49999L25 5.99374ZM44.4375 37.5C45.1344 38.8969 45.9406 40.0031 46.875 40.625H3.125C4.05937 40.0031 4.86562 38.8969 5.5625 37.5C8.375 31.875 9.375 21.5 9.375 18.75C9.375 11.1875 14.75 4.87499 21.8906 3.43436C21.847 2.99984 21.895 2.56101 22.0314 2.14615C22.1678 1.7313 22.3896 1.34964 22.6826 1.02579C22.9755 0.701945 23.3331 0.443096 23.7323 0.265939C24.1314 0.088783 24.5633 -0.00274658 25 -0.00274658C25.4367 -0.00274658 25.8686 0.088783 26.2677 0.265939C26.6669 0.443096 27.0245 0.701945 27.3174 1.02579C27.6104 1.34964 27.8322 1.7313 27.9686 2.14615C28.105 2.56101 28.153 2.99984 28.1094 3.43436C31.6415 4.1528 34.8168 6.06986 37.0976 8.86093C39.3784 11.652 40.6245 15.1455 40.625 18.75C40.625 21.5 41.625 31.875 44.4375 37.5Z" fill="#A2A2A2"/>
</svg>
