<svg width="21" height="20" viewBox="0 0 21 20" fill="none" xmlns="http://www.w3.org/2000/svg">
<path d="M10.5 4.375C10.5 4.20924 10.4342 4.05027 10.3169 3.93306C10.1997 3.81585 10.0408 3.75 9.875 3.75C9.70924 3.75 9.55027 3.81585 9.43306 3.93306C9.31585 4.05027 9.25 4.20924 9.25 4.375V11.25C9.25004 11.3602 9.27919 11.4684 9.33451 11.5636C9.38982 11.6589 9.46934 11.7379 9.565 11.7925L13.94 14.2925C14.0836 14.3701 14.2518 14.3885 14.4087 14.3437C14.5657 14.2989 14.6988 14.1944 14.7798 14.0527C14.8608 13.9111 14.8831 13.7433 14.842 13.5854C14.801 13.4274 14.6997 13.2918 14.56 13.2075L10.5 10.8875V4.375Z" fill="#A2A2A2"/>
<path d="M10.5 20C13.1522 20 15.6957 18.9464 17.5711 17.0711C19.4464 15.1957 20.5 12.6522 20.5 10C20.5 7.34784 19.4464 4.8043 17.5711 2.92893C15.6957 1.05357 13.1522 0 10.5 0C7.84784 0 5.3043 1.05357 3.42893 2.92893C1.55357 4.8043 0.5 7.34784 0.5 10C0.5 12.6522 1.55357 15.1957 3.42893 17.0711C5.3043 18.9464 7.84784 20 10.5 20ZM19.25 10C19.25 12.3206 18.3281 14.5462 16.6872 16.1872C15.0462 17.8281 12.8206 18.75 10.5 18.75C8.17936 18.75 5.95376 17.8281 4.31282 16.1872C2.67187 14.5462 1.75 12.3206 1.75 10C1.75 7.67936 2.67187 5.45376 4.31282 3.81282C5.95376 2.17187 8.17936 1.25 10.5 1.25C12.8206 1.25 15.0462 2.17187 16.6872 3.81282C18.3281 5.45376 19.25 7.67936 19.25 10Z" fill="#A2A2A2"/>
</svg>
