<svg width="140" height="134" viewBox="0 0 140 134" fill="none" xmlns="http://www.w3.org/2000/svg">
<path d="M58.9539 133.319C91.5133 133.319 117.908 128.319 117.908 122.152C117.908 115.984 91.5133 110.984 58.9539 110.984C26.3946 110.984 0 115.984 0 122.152C0 128.319 26.3946 133.319 58.9539 133.319Z" fill="#F5F5F7" fill-opacity="0.8"/>
<path fill-rule="evenodd" clip-rule="evenodd" d="M106.116 89.3428L85.3121 63.3847C84.3139 62.1628 82.8547 61.4232 81.3182 61.4232H36.5878C35.0521 61.4232 33.593 62.1628 32.5947 63.3847L11.7913 89.3428V102.904H106.117V89.3428H106.116Z" fill="#AEB8C2"/>
<path fill-rule="evenodd" clip-rule="evenodd" d="M29.4175 27.9196H88.4896C89.4121 27.9196 90.2968 28.2911 90.9491 28.9525C91.6014 29.6138 91.9679 30.5107 91.9679 31.4459V113.736C91.9679 114.671 91.6014 115.568 90.9491 116.23C90.2968 116.891 89.4121 117.262 88.4896 117.262H29.4175C28.495 117.262 27.6103 116.891 26.958 116.23C26.3057 115.568 25.9392 114.671 25.9392 113.736V31.4459C25.9392 30.5107 26.3057 29.6138 26.958 28.9525C27.6103 28.2911 28.495 27.9196 29.4175 27.9196Z" fill="#F5F5F7"/>
<path fill-rule="evenodd" clip-rule="evenodd" d="M37.1114 36.694H80.7957C81.257 36.694 81.6993 36.8797 82.0255 37.2104C82.3517 37.541 82.5349 37.9895 82.5349 38.4571V60.4587C82.5349 60.9263 82.3517 61.3748 82.0255 61.7054C81.6993 62.0361 81.257 62.2219 80.7957 62.2219H37.1114C36.6502 62.2219 36.2078 62.0361 35.8816 61.7054C35.5555 61.3748 35.3723 60.9263 35.3723 60.4587V38.4571C35.3723 37.9895 35.5555 37.541 35.8816 37.2104C36.2078 36.8797 36.6502 36.694 37.1114 36.694ZM37.3392 71.7932H80.5679C81.0896 71.7932 81.5899 72.0033 81.9588 72.3772C82.3276 72.7512 82.5349 73.2584 82.5349 73.7873C82.5349 74.3162 82.3276 74.8234 81.9588 75.1974C81.5899 75.5713 81.0896 75.7814 80.5679 75.7814H37.3392C36.8176 75.7814 36.3172 75.5713 35.9484 75.1974C35.5795 74.8234 35.3723 74.3162 35.3723 73.7873C35.3723 73.2584 35.5795 72.7512 35.9484 72.3772C36.3172 72.0033 36.8176 71.7932 37.3392 71.7932ZM37.3392 82.1632H80.5679C81.0897 82.1632 81.5901 82.3733 81.9591 82.7474C82.328 83.1214 82.5353 83.6287 82.5353 84.1577C82.5353 84.6867 82.328 85.1941 81.9591 85.5681C81.5901 85.9422 81.0897 86.1523 80.5679 86.1523H37.3392C36.8174 86.1523 36.317 85.9422 35.9481 85.5681C35.5791 85.1941 35.3718 84.6867 35.3718 84.1577C35.3718 83.6287 35.5791 83.1214 35.9481 82.7474C36.317 82.3733 36.8174 82.1632 37.3392 82.1632ZM105.924 120.514C105.251 123.221 102.884 125.239 100.068 125.239H17.8392C15.0236 125.239 12.6566 123.22 11.9836 120.514C11.8552 119.998 11.7904 119.468 11.7905 118.936V89.3436H34.6757C37.2036 89.3436 39.241 91.5017 39.241 94.1218V94.1571C39.241 96.7762 41.3018 98.8911 43.8297 98.8911H74.0775C76.6053 98.8911 78.6662 96.7568 78.6662 94.1368V94.1262C78.6662 91.5061 80.7036 89.3428 83.2314 89.3428H106.117V118.936C106.117 119.48 106.05 120.008 105.924 120.514Z" fill="#DCE0E6"/>
<path fill-rule="evenodd" clip-rule="evenodd" d="M108.801 29.3495L102.862 31.6857C102.709 31.7459 102.543 31.7611 102.382 31.7298C102.221 31.6984 102.073 31.6216 101.953 31.5084C101.833 31.3951 101.748 31.2499 101.706 31.0894C101.664 30.929 101.668 30.7598 101.717 30.6014L103.401 25.1294C101.15 22.534 99.8279 19.3692 99.8279 15.9539C99.8279 7.14255 108.626 0 119.48 0C130.331 0 139.13 7.14255 139.13 15.9539C139.13 24.7653 130.332 31.9079 119.479 31.9079C115.542 31.9079 111.876 30.9681 108.801 29.3495Z" fill="#DCE0E6"/>
<path d="M127.221 18.8349C128.589 18.8349 129.698 17.7239 129.698 16.3533C129.698 14.9827 128.589 13.8716 127.221 13.8716C125.853 13.8716 124.743 14.9827 124.743 16.3533C124.743 17.7239 125.853 18.8349 127.221 18.8349Z" fill="white"/>
<path fill-rule="evenodd" clip-rule="evenodd" d="M114.216 18.5246H109.261L111.781 14.1819L114.216 18.5246ZM117.312 14.1819H121.647V18.5246H117.312V14.1819Z" fill="white"/>
</svg>
