<svg width="21" height="22" viewBox="0 0 21 22" fill="none" xmlns="http://www.w3.org/2000/svg">
<path d="M20.1751 13.6649L18.6399 12.3524C18.7126 11.907 18.7501 11.4523 18.7501 10.9977C18.7501 10.543 18.7126 10.0883 18.6399 9.64297L20.1751 8.33047C20.2908 8.23135 20.3737 8.09932 20.4127 7.95196C20.4516 7.80459 20.4447 7.64886 20.393 7.50547L20.3719 7.44454C19.9493 6.26335 19.3165 5.16837 18.504 4.21251L18.4618 4.16329C18.3632 4.04739 18.2318 3.96408 18.085 3.92434C17.9381 3.88459 17.7827 3.89027 17.6391 3.94063L15.7336 4.61797C15.0305 4.04141 14.2454 3.58672 13.3969 3.26798L13.029 1.27579C13.0012 1.12589 12.9285 0.987981 12.8205 0.880392C12.7125 0.772803 12.5743 0.700623 12.4243 0.673444L12.361 0.661725C11.1399 0.441412 9.85552 0.441412 8.63443 0.661725L8.57115 0.673444C8.42114 0.700623 8.28295 0.772803 8.17494 0.880392C8.06694 0.987981 7.99422 1.12589 7.96646 1.27579L7.59615 3.27735C6.75448 3.59617 5.97068 4.05061 5.27584 4.62266L3.3563 3.94063C3.21279 3.88987 3.05722 3.88398 2.91028 3.92376C2.76333 3.96353 2.63197 4.04707 2.53365 4.16329L2.49146 4.21251C1.67993 5.16905 1.04718 6.26384 0.623491 7.44454L0.602397 7.50547C0.496929 7.79844 0.583647 8.12657 0.820366 8.33047L2.37427 9.65704C2.30162 10.0977 2.26646 10.5477 2.26646 10.9953C2.26646 11.4453 2.30162 11.8953 2.37427 12.3336L0.820366 13.6602C0.704575 13.7593 0.621702 13.8913 0.582766 14.0387C0.543831 14.1861 0.550678 14.3418 0.602397 14.4852L0.623491 14.5461C1.04771 15.7274 1.67583 16.8172 2.49146 17.7781L2.53365 17.8274C2.63221 17.9432 2.76358 18.0266 2.91043 18.0663C3.05729 18.106 3.21274 18.1004 3.3563 18.05L5.27584 17.368C5.97427 17.9422 6.75474 18.3969 7.59615 18.7133L7.96646 20.7149C7.99422 20.8648 8.06694 21.0027 8.17494 21.1102C8.28295 21.2178 8.42114 21.29 8.57115 21.3172L8.63443 21.3289C9.86674 21.5504 11.1287 21.5504 12.361 21.3289L12.4243 21.3172C12.5743 21.29 12.7125 21.2178 12.8205 21.1102C12.9285 21.0027 13.0012 20.8648 13.029 20.7149L13.3969 18.7227C14.245 18.4047 15.0346 17.9486 15.7336 17.3727L17.6391 18.05C17.7826 18.1008 17.9382 18.1067 18.0851 18.0669C18.2321 18.0271 18.3634 17.9436 18.4618 17.8274L18.504 17.7781C19.3196 16.8148 19.9477 15.7274 20.3719 14.5461L20.393 14.4852C20.4985 14.1969 20.4118 13.8688 20.1751 13.6649ZM16.9758 9.91954C17.0344 10.2734 17.0649 10.6367 17.0649 11C17.0649 11.3633 17.0344 11.7266 16.9758 12.0805L16.8211 13.0203L18.5719 14.518C18.3065 15.1294 17.9715 15.7083 17.5735 16.243L15.3985 15.4719L14.6626 16.0766C14.1024 16.5359 13.479 16.8969 12.804 17.15L11.911 17.4852L11.4915 19.7586C10.8295 19.8336 10.1612 19.8336 9.49927 19.7586L9.07974 17.4805L8.1938 17.1406C7.52584 16.8875 6.90474 16.5266 6.34927 16.0695L5.61334 15.4625L3.42427 16.2406C3.02584 15.7039 2.69302 15.125 2.42583 14.5156L4.19537 13.0039L4.04302 12.0664C3.98677 11.7172 3.9563 11.3563 3.9563 11C3.9563 10.6414 3.98443 10.2828 4.04302 9.9336L4.19537 8.9961L2.42583 7.48438C2.69068 6.87266 3.02584 6.2961 3.42427 5.75938L5.61334 6.53751L6.34927 5.93048C6.90474 5.47344 7.52584 5.11251 8.1938 4.85938L9.08208 4.52422L9.50162 2.2461C10.1602 2.1711 10.8329 2.1711 11.4938 2.2461L11.9133 4.51954L12.8063 4.85469C13.479 5.10782 14.1047 5.46876 14.6649 5.92813L15.4008 6.53282L17.5758 5.76172C17.9743 6.29844 18.3071 6.87735 18.5743 7.48672L16.8235 8.98438L16.9758 9.91954ZM10.5001 6.64063C8.22193 6.64063 6.37505 8.48751 6.37505 10.7656C6.37505 13.0438 8.22193 14.8906 10.5001 14.8906C12.7782 14.8906 14.6251 13.0438 14.6251 10.7656C14.6251 8.48751 12.7782 6.64063 10.5001 6.64063ZM12.3563 12.6219C12.1128 12.866 11.8235 13.0597 11.5049 13.1916C11.1864 13.3235 10.8449 13.3912 10.5001 13.3906C9.79927 13.3906 9.14068 13.1164 8.6438 12.6219C8.39964 12.3784 8.20602 12.0891 8.07409 11.7705C7.94216 11.4519 7.87452 11.1104 7.87505 10.7656C7.87505 10.0648 8.14927 9.40626 8.6438 8.90938C9.14068 8.41251 9.79927 8.14063 10.5001 8.14063C11.2008 8.14063 11.8594 8.41251 12.3563 8.90938C12.6005 9.15285 12.7941 9.44218 12.926 9.76075C13.0579 10.0793 13.1256 10.4208 13.1251 10.7656C13.1251 11.4664 12.8508 12.125 12.3563 12.6219Z" fill="#A2A2A2"/>
</svg>
