<svg width="100" height="100" viewBox="0 0 19 22" fill="none" xmlns="http://www.w3.org/2000/svg">
<path d="M16 9.12V5.7C16 4.44258 15.103 3.42 14 3.42H11C11 1.53444 9.654 0 8 0C6.346 0 5 1.53444 5 3.42H2C0.897 3.42 0 4.44258 0 5.7V10.1243L0.659 10.3968C1.461 10.7274 2 11.5892 2 12.54C2 13.4908 1.461 14.3526 0.659 14.6832L0 14.9557V19.38C0 20.6374 0.897 21.66 2 21.66H5.881L6.12 20.9087C6.41 19.9945 7.166 19.38 8 19.38C8.834 19.38 9.59 19.9945 9.88 20.9087L10.119 21.66H14C15.103 21.66 16 20.6374 16 19.38V15.96C17.654 15.96 19 14.4256 19 12.54C19 10.6544 17.654 9.12 16 9.12ZM16 13.68H14L13.997 19.38H11.452C10.741 17.9892 9.43 17.1 8 17.1C6.57 17.1 5.259 17.9892 4.548 19.38H2V16.4753C3.22 15.6647 4 14.1702 4 12.54C4 10.9098 3.22 9.41526 2 8.60472V5.7H7V3.42C7 3.11765 7.10536 2.82769 7.29289 2.6139C7.48043 2.40011 7.73478 2.28 8 2.28C8.26522 2.28 8.51957 2.40011 8.70711 2.6139C8.89464 2.82769 9 3.11765 9 3.42V5.7H14V11.4H16C16.2652 11.4 16.5196 11.5201 16.7071 11.7339C16.8946 11.9477 17 12.2377 17 12.54C17 12.8423 16.8946 13.1323 16.7071 13.3461C16.5196 13.5599 16.2652 13.68 16 13.68Z" fill="#A2A2A2"/>
</svg>
