<svg width="22" height="20" viewBox="0 0 22 20" fill="none" xmlns="http://www.w3.org/2000/svg">
<path d="M8.25 0.347675C8.38422 0.49594 8.46644 0.67739 8.48605 0.868578C8.50566 1.05977 8.46175 1.25191 8.36 1.42017C7.56506 2.74702 7.14991 4.23429 7.15275 5.74518C7.15275 10.7714 11.66 14.8414 17.215 14.8414C17.9396 14.8414 18.645 14.7727 19.3229 14.6414C19.5307 14.6005 19.7471 14.6162 19.9452 14.6864C20.1433 14.7567 20.3142 14.8784 20.4366 15.0364C20.5659 15.2007 20.6318 15.3993 20.624 15.6011C20.6163 15.803 20.5355 15.9969 20.394 16.1527C19.3156 17.357 17.9551 18.3273 16.4118 18.9929C14.8685 19.6585 13.1812 20.0026 11.473 20.0002C5.13425 20.0002 0 15.3577 0 9.63768C0 5.33268 2.90675 1.64017 7.0455 0.0751748C7.25167 -0.00403542 7.48054 -0.020293 7.69773 0.0288443C7.91493 0.0779816 8.10872 0.189861 8.25 0.347675Z" fill="#FF78C4"/>
<path d="M14.8419 3.935C14.8616 3.88087 14.8996 3.83377 14.9504 3.80038C15.0013 3.76699 15.0624 3.74902 15.1251 3.74902C15.1878 3.74902 15.249 3.76699 15.2998 3.80038C15.3507 3.83377 15.3886 3.88087 15.4084 3.935L15.9405 5.3875C16.1784 6.035 16.7366 6.5425 17.4489 6.75875L19.0466 7.2425C19.1062 7.26043 19.158 7.29496 19.1947 7.34118C19.2314 7.38741 19.2512 7.44298 19.2512 7.5C19.2512 7.55703 19.2314 7.6126 19.1947 7.65883C19.158 7.70505 19.1062 7.73958 19.0466 7.7575L17.4489 8.24125C17.0976 8.34765 16.7784 8.52696 16.5166 8.76497C16.2548 9.00299 16.0575 9.29316 15.9405 9.6125L15.4084 11.065C15.3886 11.1191 15.3507 11.1662 15.2998 11.1996C15.249 11.233 15.1878 11.251 15.1251 11.251C15.0624 11.251 15.0013 11.233 14.9504 11.1996C14.8996 11.1662 14.8616 11.1191 14.8419 11.065L14.3097 9.6125C14.1927 9.29316 13.9955 9.00299 13.7336 8.76497C13.4718 8.52696 13.1526 8.34765 12.8014 8.24125L11.2036 7.7575C11.1441 7.73958 11.0922 7.70505 11.0555 7.65883C11.0188 7.6126 10.999 7.55703 10.999 7.5C10.999 7.44298 11.0188 7.38741 11.0555 7.34118C11.0922 7.29496 11.1441 7.26043 11.2036 7.2425L12.8014 6.75875C13.1526 6.65236 13.4718 6.47305 13.7336 6.23504C13.9955 5.99702 14.1927 5.70685 14.3097 5.3875L14.8419 3.935ZM19.0617 0.123755C19.0753 0.088163 19.1007 0.0573 19.1345 0.0354571C19.1683 0.0136142 19.2087 0.00187683 19.2501 0.00187683C19.2915 0.00187683 19.332 0.0136142 19.3657 0.0354571C19.3995 0.0573 19.4249 0.088163 19.4385 0.123755L19.7932 1.09126C19.9514 1.52375 20.324 1.8625 20.7997 2.00625L21.864 2.32875C21.9031 2.34109 21.9371 2.36422 21.9611 2.39491C21.9851 2.4256 21.998 2.46233 21.998 2.5C21.998 2.53768 21.9851 2.57441 21.9611 2.6051C21.9371 2.63579 21.9031 2.65892 21.864 2.67126L20.7997 2.99375C20.5653 3.06466 20.3522 3.18428 20.1775 3.34311C20.0028 3.50194 19.8712 3.69562 19.7932 3.90876L19.4385 4.87626C19.4249 4.91185 19.3995 4.94271 19.3657 4.96455C19.332 4.9864 19.2915 4.99813 19.2501 4.99813C19.2087 4.99813 19.1683 4.9864 19.1345 4.96455C19.1007 4.94271 19.0753 4.91185 19.0617 4.87626L18.707 3.90876C18.629 3.69562 18.4974 3.50194 18.3227 3.34311C18.148 3.18428 17.9349 3.06466 17.7005 2.99375L16.6362 2.67126C16.5971 2.65892 16.5631 2.63579 16.5391 2.6051C16.5151 2.57441 16.5022 2.53768 16.5022 2.5C16.5022 2.46233 16.5151 2.4256 16.5391 2.39491C16.5631 2.36422 16.5971 2.34109 16.6362 2.32875L17.7005 2.00625C18.1762 1.8625 18.5489 1.52375 18.707 1.09126L19.0617 0.125005V0.123755Z" fill="#FF78C4"/>
</svg>
