<svg width="21" height="22" viewBox="0 0 21 22" fill="none" xmlns="http://www.w3.org/2000/svg">
<path d="M20.1751 13.6648L18.6399 12.3523C18.7126 11.907 18.7501 11.4523 18.7501 10.9976C18.7501 10.5429 18.7126 10.0883 18.6399 9.64294L20.1751 8.33044C20.2908 8.23132 20.3737 8.09929 20.4127 7.95193C20.4516 7.80456 20.4447 7.64883 20.393 7.50544L20.3719 7.44451C19.9493 6.26332 19.3165 5.16834 18.504 4.21248L18.4618 4.16326C18.3632 4.04736 18.2318 3.96405 18.085 3.92431C17.9381 3.88456 17.7827 3.89024 17.6391 3.9406L15.7336 4.61794C15.0305 4.04138 14.2454 3.58669 13.3969 3.26794L13.029 1.27576C13.0012 1.12586 12.9285 0.98795 12.8205 0.880361C12.7125 0.772772 12.5743 0.700593 12.4243 0.673413L12.361 0.661694C11.1399 0.441382 9.85552 0.441382 8.63443 0.661694L8.57115 0.673413C8.42114 0.700593 8.28295 0.772772 8.17494 0.880361C8.06694 0.98795 7.99422 1.12586 7.96646 1.27576L7.59615 3.27732C6.75448 3.59614 5.97068 4.05058 5.27584 4.62263L3.3563 3.9406C3.21279 3.88984 3.05722 3.88395 2.91028 3.92372C2.76333 3.9635 2.63197 4.04704 2.53365 4.16326L2.49146 4.21248C1.67993 5.16902 1.04718 6.26381 0.623491 7.44451L0.602397 7.50544C0.496929 7.79841 0.583647 8.12654 0.820366 8.33044L2.37427 9.65701C2.30162 10.0976 2.26646 10.5476 2.26646 10.9953C2.26646 11.4453 2.30162 11.8953 2.37427 12.3336L0.820366 13.6601C0.704575 13.7593 0.621702 13.8913 0.582766 14.0387C0.543831 14.186 0.550678 14.3418 0.602397 14.4851L0.623491 14.5461C1.04771 15.7273 1.67583 16.8172 2.49146 17.7781L2.53365 17.8273C2.63221 17.9432 2.76358 18.0265 2.91043 18.0663C3.05729 18.106 3.21274 18.1003 3.3563 18.05L5.27584 17.3679C5.97427 17.9422 6.75474 18.3969 7.59615 18.7133L7.96646 20.7148C7.99422 20.8647 8.06694 21.0026 8.17494 21.1102C8.28295 21.2178 8.42114 21.29 8.57115 21.3172L8.63443 21.3289C9.86674 21.5504 11.1287 21.5504 12.361 21.3289L12.4243 21.3172C12.5743 21.29 12.7125 21.2178 12.8205 21.1102C12.9285 21.0026 13.0012 20.8647 13.029 20.7148L13.3969 18.7226C14.245 18.4047 15.0346 17.9485 15.7336 17.3726L17.6391 18.05C17.7826 18.1007 17.9382 18.1066 18.0851 18.0669C18.2321 18.0271 18.3634 17.9435 18.4618 17.8273L18.504 17.7781C19.3196 16.8148 19.9477 15.7273 20.3719 14.5461L20.393 14.4851C20.4985 14.1969 20.4118 13.8687 20.1751 13.6648ZM16.9758 9.91951C17.0344 10.2734 17.0649 10.6367 17.0649 11C17.0649 11.3633 17.0344 11.7265 16.9758 12.0804L16.8211 13.0203L18.5719 14.5179C18.3065 15.1294 17.9715 15.7082 17.5735 16.2429L15.3985 15.4719L14.6626 16.0765C14.1024 16.5359 13.479 16.8969 12.804 17.15L11.911 17.4851L11.4915 19.7586C10.8295 19.8336 10.1612 19.8336 9.49927 19.7586L9.07974 17.4804L8.1938 17.1406C7.52584 16.8875 6.90474 16.5265 6.34927 16.0695L5.61334 15.4625L3.42427 16.2406C3.02584 15.7039 2.69302 15.125 2.42583 14.5156L4.19537 13.0039L4.04302 12.0664C3.98677 11.7172 3.9563 11.3562 3.9563 11C3.9563 10.6414 3.98443 10.2828 4.04302 9.93357L4.19537 8.99607L2.42583 7.48435C2.69068 6.87263 3.02584 6.29607 3.42427 5.75935L5.61334 6.53748L6.34927 5.93044C6.90474 5.47341 7.52584 5.11248 8.1938 4.85935L9.08208 4.52419L9.50162 2.24607C10.1602 2.17107 10.8329 2.17107 11.4938 2.24607L11.9133 4.51951L12.8063 4.85466C13.479 5.10779 14.1047 5.46873 14.6649 5.9281L15.4008 6.53279L17.5758 5.76169C17.9743 6.29841 18.3071 6.87732 18.5743 7.48669L16.8235 8.98435L16.9758 9.91951ZM10.5001 6.6406C8.22193 6.6406 6.37505 8.48748 6.37505 10.7656C6.37505 13.0437 8.22193 14.8906 10.5001 14.8906C12.7782 14.8906 14.6251 13.0437 14.6251 10.7656C14.6251 8.48748 12.7782 6.6406 10.5001 6.6406ZM12.3563 12.6219C12.1128 12.866 11.8235 13.0596 11.5049 13.1916C11.1864 13.3235 10.8449 13.3911 10.5001 13.3906C9.79927 13.3906 9.14068 13.1164 8.6438 12.6219C8.39964 12.3784 8.20602 12.089 8.07409 11.7705C7.94216 11.4519 7.87452 11.1104 7.87505 10.7656C7.87505 10.0648 8.14927 9.40623 8.6438 8.90935C9.14068 8.41248 9.79927 8.1406 10.5001 8.1406C11.2008 8.1406 11.8594 8.41248 12.3563 8.90935C12.6005 9.15281 12.7941 9.44215 12.926 9.76072C13.0579 10.0793 13.1256 10.4208 13.1251 10.7656C13.1251 11.4664 12.8508 12.125 12.3563 12.6219Z" fill="#A2A2A2"/>
</svg>
