<svg width="20" height="22" viewBox="0 0 20 22" fill="none" xmlns="http://www.w3.org/2000/svg">
<path d="M13.7498 3.43763C13.7498 2.6311 14.0075 1.85021 14.4779 1.23159C14.9484 0.612973 15.6016 0.196014 16.3233 0.0536651C17.045 -0.0886836 17.7892 0.0526425 18.4258 0.452917C19.0623 0.853192 19.5506 1.48693 19.8053 2.24324C20.06 2.99956 20.0647 3.8303 19.8188 4.59011C19.5729 5.34993 19.092 5.99044 18.4601 6.39957C17.8282 6.80871 17.0857 6.96042 16.3624 6.82817C15.6391 6.69592 14.9811 6.28812 14.5036 5.67613L6.10609 9.96613C6.29914 10.6391 6.29914 11.3611 6.10609 12.0341L14.5036 16.3241C15.0084 15.6783 15.7132 15.2617 16.4813 15.1549C17.2495 15.0481 18.0263 15.2588 18.6613 15.7462C19.2963 16.2336 19.7442 16.9629 19.9182 17.7928C20.0922 18.6227 19.9799 19.4941 19.6031 20.2382C19.2263 20.9822 18.6118 21.5459 17.8787 21.8199C17.1456 22.094 16.3461 22.059 15.6352 21.7216C14.9243 21.3842 14.3525 20.7685 14.0307 19.9938C13.709 19.2192 13.6601 18.3407 13.8936 17.5286L5.49609 13.2386C5.08039 13.7715 4.52628 14.1516 3.90832 14.3277C3.29035 14.5039 2.63817 14.4676 2.03952 14.2238C1.44086 13.98 0.924438 13.5403 0.559727 12.964C0.195017 12.3877 -0.000488281 11.7023 -0.000488281 11.0001C-0.000488281 10.2979 0.195017 9.61256 0.559727 9.03623C0.924438 8.45991 1.44086 8.02027 2.03952 7.77647C2.63817 7.53266 3.29035 7.49638 3.90832 7.67251C4.52628 7.84863 5.08039 8.22872 5.49609 8.76163L13.8936 4.47163C13.798 4.13704 13.7495 3.78834 13.7498 3.43763Z" fill="#FF78C4"/>
</svg>
