<svg width="21" height="24" viewBox="0 0 21 24" fill="none" xmlns="http://www.w3.org/2000/svg">
<path d="M10.5 24C11.2956 24 12.0587 23.6839 12.6213 23.1213C13.1839 22.5587 13.5 21.7956 13.5 21H7.5C7.5 21.7956 7.81607 22.5587 8.37868 23.1213C8.94129 23.6839 9.70435 24 10.5 24ZM10.5 2.87697L9.3045 3.11847C7.94844 3.39477 6.7295 4.13112 5.85398 5.2029C4.97846 6.27468 4.50015 7.61605 4.5 8.99997C4.5 9.94197 4.299 12.2955 3.8115 14.613C3.5715 15.7635 3.2475 16.962 2.817 18H18.183C17.7525 16.962 17.43 15.765 17.1885 14.613C16.701 12.2955 16.5 9.94197 16.5 8.99997C16.4995 7.61631 16.021 6.27529 15.1455 5.20382C14.2701 4.13235 13.0513 3.39622 11.6955 3.11997L10.5 2.87697ZM19.83 18C20.1645 18.6705 20.5515 19.2015 21 19.5H0C0.4485 19.2015 0.8355 18.6705 1.17 18C2.52 15.3 3 10.32 3 8.99997C3 5.36997 5.58 2.33997 9.0075 1.64847C8.98656 1.4399 9.00958 1.22926 9.07505 1.03013C9.14052 0.831 9.24701 0.647804 9.38763 0.492357C9.52826 0.336909 9.6999 0.212661 9.8915 0.127626C10.0831 0.0425914 10.2904 -0.00134277 10.5 -0.00134277C10.7096 -0.00134277 10.9169 0.0425914 11.1085 0.127626C11.3001 0.212661 11.4717 0.336909 11.6124 0.492357C11.753 0.647804 11.8595 0.831 11.9249 1.03013C11.9904 1.22926 12.0134 1.4399 11.9925 1.64847C13.6879 1.99332 15.2121 2.91351 16.3069 4.25322C17.4016 5.59293 17.9998 7.26983 18 8.99997C18 10.32 18.48 15.3 19.83 18Z" fill="#A2A2A2"/>
</svg>
